<svg id="Layer_1" data-name="Layer 1" xmlns="http://www.w3.org/2000/svg" viewBox="0 0 171 116.52"><defs><style>.cls-1{fill:#fff;}</style></defs><title>logo</title><path class="cls-1" d="M10.08,101v5.91h.05L12.27,101h1.56l-2.44,6.27L14,114H12.46l-2.33-6.27h-.05V114H8.61v-6.27h0L6.23,114H4.67l2.63-6.67L4.86,101H6.42l2.14,5.91h0V101Z"/><path class="cls-1" d="M25.68,102.39,24.05,114H22V101h1.33v5.17l-.14,6.37h0L24.9,101h2V114H25.59v-5.18l.14-6.39Z"/><path class="cls-1" d="M40.67,101V114H39.2V102.2H37.73v3.71c0,4.3,0,6.62-.81,7.46a2.65,2.65,0,0,1-2,.59v-1c1.21,0,1.28-.59,1.28-5.41V101Z"/><path class="cls-1" d="M49.53,103.37a2.21,2.21,0,0,1,2.45-2.5,2.2,2.2,0,0,1,2.44,2.5v8.24A2.2,2.2,0,0,1,52,114.1a2.2,2.2,0,0,1-2.45-2.49Zm3.42,0c0-1-.38-1.31-1-1.31s-1,.36-1,1.31v8.24c0,1,.38,1.3,1,1.3s1-.35,1-1.3Z"/><path class="cls-1" d="M66.94,102.39,65.3,114h-2V101h1.33v5.17l-.14,6.37h0L66.16,101h2V114H66.84v-5.18l.15-6.39Zm-2.68-5.15c0,.38.54.76,1.35.76S67,97.62,67,97.24h.81c0,1.52-1.07,1.8-2.16,1.8s-2.16-.28-2.16-1.8Z"/><path class="cls-1" d="M81,101H82.5v5.91h0L84.68,101h1.57l-2.45,6.27L86.44,114H84.87l-2.33-6.27h0V114H81Z"/><path class="cls-1" d="M97.13,114H94.44V101h2.5c1.25,0,2.2.28,2.2,2.25v2.23a1.38,1.38,0,0,1-1.26,1.57v.05a1.58,1.58,0,0,1,1.45,1.8v2.78C99.33,113.67,98.38,114,97.13,114Zm.54-10.69a1.05,1.05,0,0,0-1-1.07h-.79v4.47h.79c.59,0,1-.22,1-1.17Zm.19,5.65a1,1,0,0,0-1-1.07h-1v4.92h1c.59,0,1-.12,1-1.07Z"/><path class="cls-1" d="M111.37,103.15c0-.78-.26-1.09-.85-1.09-.83,0-1,.5-1,1.26v1.21H108.1V103a2.23,2.23,0,0,1,2.47-2.14,2,2,0,0,1,2.28,2.26V114h-1.38v-.69h0a1.94,1.94,0,0,1-1.71.83c-1.14,0-1.75-.83-1.75-2.14v-3.51c0-1.62,1.09-2.5,3.41-2.5Zm0,4c-.76,0-1.94.31-1.94,1.4v2.95c0,.93.14,1.42.92,1.42s1-.47,1-1.33Z"/><path class="cls-1" d="M121.71,101h1.37v.8h0a1.53,1.53,0,0,1,1.57-.95c1,0,1.9.57,1.9,2.52v8.69a1.8,1.8,0,0,1-3.37,1.07h0v3.37h-1.47Zm3.42,2.42c0-.9-.27-1.38-.86-1.38s-1.09.38-1.09,1.43v7.86c0,.8.43,1.42,1.07,1.42s.88-.54.88-1.49Z"/><path class="cls-1" d="M139.57,102.2h-1.69V114h-1.47V102.2h-1.69V101h4.85Z"/><path class="cls-1" d="M151.11,103.15c0-.78-.26-1.09-.86-1.09-.83,0-.95.5-.95,1.26v1.21h-1.47V103a2.24,2.24,0,0,1,2.47-2.14c1.43,0,2.28.6,2.28,2.26V114H151.2v-.69h0a2,2,0,0,1-1.71.83c-1.14,0-1.76-.83-1.76-2.14v-3.51c0-1.62,1.09-2.5,3.42-2.5Zm0,4c-.76,0-2,.31-2,1.4v2.95c0,.93.14,1.42.93,1.42.64,0,1-.47,1-1.33Z"/><path class="cls-1" d="M166.33,101V114h-1.47V102.2h-1.47v3.71c0,4.3,0,6.62-.81,7.46a2.65,2.65,0,0,1-2,.59v-1c1.21,0,1.28-.59,1.28-5.41V101Z"/><path class="cls-1" d="M53.14,69.46H24.79V66h3.08c2.7,0,4.32-.18,4.87-.54s.82-1.65.82-3.7V32.55c0-2.1-.28-3.33-.82-3.7s-2.17-.54-4.87-.54H24V24.88q12.18-1,17.12-4.72h3.42V61.79c0,2.05.28,3.28.82,3.7s2.17.54,4.86.54h3v3.36Z"/><path class="cls-1" d="M79.85,69.46H51.5V66h3.08c2.69,0,4.32-.18,4.86-.54s.83-1.65.83-3.7V32.55c0-2.1-.28-3.33-.83-3.7s-2.17-.54-4.86-.54H50.75V24.88q12.18-1,17.11-4.72h3.43V61.79c0,2.05.27,3.28.82,3.7S74.28,66,77,66h3v3.36Z"/><path class="cls-1" d="M114.22,58.09h-7.8v3.7c0,2,.23,3.17.68,3.63s1.78.68,4,.68h1.36v3.42H88.62V66.1h2.19c2.19,0,3.51-.23,4-.68s.68-1.69.68-3.7V58H77.11V53.37L102.72,20h3.56V53.23h7.81V58ZM95.6,53.3V37h-.41L82.66,53.3H95.53v-.07Z"/><path class="cls-1" d="M147,24.27l-2.74,5.61-6.16,12.87A59.85,59.85,0,0,0,135.11,50a50.17,50.17,0,0,0-1.71,6.71,34.51,34.51,0,0,0-.55,6q0,3.9-1.64,5.82a6.06,6.06,0,0,1-8.7.14,6.7,6.7,0,0,1-1.5-4.46,22.2,22.2,0,0,1,1.64-7.94,51.28,51.28,0,0,1,4.18-8.35q2.54-4.19,5.82-8.7l6.5-8.76h-16.7c-3.43,0-5.64.57-6.65,1.71s-1.84,3.2-2.53,6.16h-3.49l2.6-17.66h34.51V24.2Z"/><path class="cls-1" d="M171,90.37H0V0H171ZM9.78,80.59H161.22V9.78H9.78Z"/><path class="cls-1" d="M159.33,78.49H11.66V11.88H159.33ZM14.46,75.7H156.54v-61H14.46Z"/></svg>