<svg id="Слой_1" data-name="Слой 1" xmlns="http://www.w3.org/2000/svg" viewBox="0 0 32 32"><defs><style>.cls-1{fill:#bcbcbb;}.cls-2{fill:#76a53d;}</style></defs><title>360-panorama</title><path class="cls-1" d="M16,7a2.88,2.88,0,0,0,2.88-2.87V3.22a2.88,2.88,0,1,0-5.76,0v.94A2.87,2.87,0,0,0,16,7ZM14.18,3.22A1.83,1.83,0,0,1,16,1.39h0a1.83,1.83,0,0,1,1.83,1.83v.94a1.83,1.83,0,1,1-3.66,0V3.22Z"/><path class="cls-1" d="M9.72,13.75l1,.1V10.23s0,0,0-.05a1.28,1.28,0,0,1,0-.19,1.94,1.94,0,0,1,.56-1.36,2,2,0,0,1,1.36-.55H13.8L15.73,10h0l0,0h0s0,0,0,0v0h0l0,0h.41l0,0h0l0,0h0l0,0h0l2-1.88h1A1.8,1.8,0,0,1,21,8.8a1.92,1.92,0,0,1,.42,1.4s0,0,0,.06V13.8l1.05-.14v-3.4a2.93,2.93,0,0,0-.66-2.15A2.83,2.83,0,0,0,19.48,7H18.23a.59.59,0,0,0-.36.13L16.08,8.84,14.37,7.17A.55.55,0,0,0,14,7H12.69a3,3,0,0,0-3,3c0,.09,0,.18,0,.27Z"/><path class="cls-1" d="M18.77,12.62V14l1.05-.08V12.62a.53.53,0,0,0-.53-.53A.52.52,0,0,0,18.77,12.62Z"/><path class="cls-1" d="M12.34,12.62v1.27l1.05.06V12.62a.53.53,0,1,0-1.05,0Z"/><path class="cls-1" d="M18.47,26.56l-.08,3.22a.89.89,0,0,1-1.78,0V26.27h-1v3.46a.88.88,0,0,1-.26.62.85.85,0,0,1-.62.26.88.88,0,0,1-.88-.85l-.11-3.58-1-.1.1,3.71a1.92,1.92,0,0,0,3.33,1.25,1.93,1.93,0,0,0,3.34-1.25l.07-3.67h-1Z"/><path class="cls-2" d="M14.52,15.76a2,2,0,1,0,2,2A2,2,0,0,0,14.52,15.76Zm0,3a1,1,0,1,1,1-1A1,1,0,0,1,14.52,18.76Z"/><path class="cls-2" d="M32,10c0-2.74-5.69-4-8.14-4.41a.51.51,0,0,0-.61.51v7.34l-.78.11-1.05.12c-.53.06-1.05.11-1.58.15l-1,.06c-.85.05-1.79.08-2.72.08s-1.8,0-2.65-.07l-1.05-.07c-.53,0-1.05-.08-1.58-.13l-1-.13c-.33,0-.71-.1-1.05-.16v-.11l0-7.15a.53.53,0,0,0-.19-.4.54.54,0,0,0-.42-.13C3,6.44.15,8.08.15,9.91L.05,21.36c0,2.79,6,4.49,12.6,4.91l1,.07c.62,0,1.26.05,1.86.05h1c.65,0,1.26,0,1.87-.05l1.05-.06a38.75,38.75,0,0,0,6.25-.9.5.5,0,0,0,.24-.06l1-.26c3.17-.93,4.85-2.2,4.85-3.67L32,10.12h0ZM7.63,6.72v6.46C6.8,13,6,12.84,5.33,12.63,2.78,11.88,1.2,10.86,1.2,10S3.19,7.58,7.63,6.72ZM12,25.18a36.18,36.18,0,0,1-6-.93l4.26-4,4,2.81Zm4,.16c-.88,0-1.75,0-2.6-.06l2-1.93h0l3.39-3.21,5.74,4.43A44.29,44.29,0,0,1,16,25.34Zm14.81-4c0,.9-1.57,1.93-4.11,2.67-.26.08-.54.15-.82.22L19.11,19a.53.53,0,0,0-.69,0L15,22.29l-4.51-3.18a.51.51,0,0,0-.66,0l-5,4.77c-2.31-.73-3.73-1.69-3.73-2.54l.08-9.56c1.63,1.38,5,2.32,8.89,2.79a.57.57,0,0,0,.26,0c.77.09,1.57.17,2.37.22a.52.52,0,0,0,.25,0c1,.07,2.07.09,3.11.09s2.11,0,3.16-.1l.1,0a.86.86,0,0,0,.17,0c.81,0,1.61-.13,2.39-.22h0l.15,0c3.84-.47,7.19-1.4,8.82-2.76Zm-4-8.76a25.13,25.13,0,0,1-2.51.59V6.68c4.59.86,6.65,2.24,6.65,3.26S29.32,11.88,26.78,12.62Z"/></svg>