<svg id="Слой_1" data-name="Слой 1" xmlns="http://www.w3.org/2000/svg" viewBox="0 0 64 64"><defs><style>.cls-1{fill:#fff;}.cls-2{fill:#74a33c;}.cls-3{opacity:0.99;isolation:isolate;}.cls-4{fill:#323031;}</style></defs><title>lclub-logo</title><rect class="cls-1" x="1.57" y="1.57" width="60.86" height="60.86"/><path class="cls-2" d="M60.93,3.07V60.93H3.07V3.07H60.93m3-3H.07V63.93H63.93V.07Z"/><g class="cls-3"><path class="cls-4" d="M17.12,40.34v1.12h-.53v-.62H14.84v.62h-.52V40.34h.21a2.2,2.2,0,0,0,.42-1.4L15,37.16h1.78v3.18Zm-.86-2.68h-.75l0,1.43a2.71,2.71,0,0,1-.29,1.25h1.09Z"/><path class="cls-4" d="M17.53,39.68V38.33a1.13,1.13,0,1,1,2.26,0v1.35a1.13,1.13,0,1,1-2.26,0Zm1.71,0V38.33c0-.47-.2-.72-.58-.72s-.58.25-.58.72v1.35c0,.46.19.71.58.71S19.24,40.14,19.24,39.68Z"/><path class="cls-4" d="M23.36,37.16v3.68h-.52V39.41c0-.42,0-.81,0-1.19h0c-.11.29-.24.63-.36,1l-.32.83h-.53l-.32-.83c-.13-.34-.25-.68-.36-1h0c0,.38,0,.77,0,1.19v1.43h-.52V37.16H21l.62,1.49c.09.21.22.57.27.74h0l.27-.74.62-1.49Z"/><path class="cls-4" d="M27.45,39.79a1,1,0,0,1-1.06,1.05H25.33V37.16h1A1,1,0,0,1,26.94,39,.87.87,0,0,1,27.45,39.79Zm-1.59-2.13v1.06h.43c.32,0,.48-.19.48-.55a.44.44,0,0,0-.5-.51Zm1.05,2.13a.54.54,0,0,0-.61-.57h-.44v1.12h.46C26.71,40.34,26.91,40.17,26.91,39.79Z"/><path class="cls-4" d="M31.26,37.16v3.68h-.53V37.66H30c-.05,1.07-.1,1.92-.17,2.35-.09.67-.4.89-.91.89v-.49c.23,0,.34-.14.4-.52s.11-1.21.17-2.73Z"/><path class="cls-4" d="M35.4,38.36v1.28c0,.79-.41,1.26-1.11,1.26s-1.12-.47-1.12-1.26v-.41h-.59v1.61h-.53V37.16h.53v1.57h.59v-.37c0-.79.42-1.25,1.12-1.25S35.4,37.57,35.4,38.36Zm-.55,0c0-.49-.19-.74-.56-.74s-.57.25-.57.74v1.28c0,.49.19.74.57.74s.56-.25.56-.74Z"/><path class="cls-4" d="M38.2,39.72a1,1,0,0,1-1.1,1.12h-1V37.16H38v.5H36.62v1h.48A1,1,0,0,1,38.2,39.72Zm-.54,0a.54.54,0,0,0-.59-.61h-.45v1.23h.45A.55.55,0,0,0,37.66,39.72Z"/><path class="cls-4" d="M40.88,37.16v3.68h-.54V37.66h-.78c-.05,1.07-.1,1.92-.17,2.35-.09.67-.4.89-.91.89v-.49c.23,0,.35-.14.4-.52s.11-1.21.17-2.73Z"/><path class="cls-4" d="M41.67,37.16h.52v1.61a10.27,10.27,0,0,1-.06,1.06h0c.07-.18.17-.43.27-.65l.89-2h.55v3.68h-.53v-1.6c0-.28,0-.78,0-1.08h0c-.07.19-.18.47-.27.68l-.89,2h-.53Z"/><path class="cls-4" d="M46.74,37.16v3.68h-.53V39.23h-1v1.61h-.53V37.16h.53v1.57h1V37.16Z"/><path class="cls-4" d="M47.43,39.68V38.33a1.13,1.13,0,1,1,2.25,0v1.35a1.13,1.13,0,1,1-2.25,0Zm1.7,0V38.33c0-.47-.2-.72-.58-.72s-.57.25-.57.72v1.35c0,.46.19.71.57.71S49.13,40.14,49.13,39.68Z"/></g><g class="cls-3"><path class="cls-4" d="M19.81,32.81v1.65H15v-9.9h1.74v8.25Z"/><path class="cls-4" d="M23.37,31.49v-4c0-2.05,1.12-3.16,3-3.16s3,1.11,3.05,3.13H27.65c0-1-.48-1.45-1.33-1.45s-1.16.46-1.16,1.48v4c0,1,.44,1.46,1.18,1.46s1.29-.44,1.36-1.43h1.74a2.87,2.87,0,0,1-3.1,3.11C24.5,34.63,23.37,33.53,23.37,31.49Z"/><path class="cls-4" d="M35.53,32.81v1.65H30.69v-9.9h1.74v8.25Z"/><path class="cls-4" d="M36,31.34V24.56h1.79v6.78c0,1.06.46,1.6,1.25,1.6s1.24-.54,1.24-1.6V24.56h1.81v6.78c0,2.08-1.16,3.28-3.05,3.28S36,33.42,36,31.34Z"/><path class="cls-4" d="M49.64,31.56a2.72,2.72,0,0,1-2.88,2.9h-3v-9.9h2.9a2.54,2.54,0,0,1,2.62,2.76,2.63,2.63,0,0,1-.9,2.07A2.34,2.34,0,0,1,49.64,31.56ZM45.51,26.2v2.44h1c.71,0,1.06-.44,1.06-1.25s-.35-1.19-1.11-1.19Zm2.35,5.36a1.21,1.21,0,0,0-1.38-1.3h-1v2.56h1C47.4,32.82,47.86,32.4,47.86,31.56Z"/></g><polygon class="cls-2" points="18.66 25.9 18.66 22.54 21.57 24.22 21.57 27.58 21.57 27.58 18.66 25.9"/></svg>