<svg id="Слой_1" data-name="Слой 1" xmlns="http://www.w3.org/2000/svg" viewBox="0 0 500 281.48"><defs><style>.cls-1{opacity:0.99;isolation:isolate;}.cls-2{fill:#323031;}.cls-3{fill:#73a434;}</style></defs><title>logo-lclub</title><g class="cls-1"><path class="cls-2" d="M39.54,264.86v16.62H32.17v-9.17H7.37v9.17H0V264.86H3.05c3.8-4.07,5.59-12.3,5.89-20.92l.89-26.48h25.1v47.4Zm-12.06-40H16.9l-.74,21.23c-.3,7.76-1.64,14.1-4.1,18.72H27.48Z"/><path class="cls-2" d="M45.43,254.91v-20c0-11.44,6-18.42,15.93-18.42s15.94,7,15.94,18.42v20c0,11.44-6,18.42-15.94,18.42S45.43,266.35,45.43,254.91Zm24.13,0v-20c0-6.9-2.83-10.66-8.2-10.66s-8.19,3.76-8.19,10.66v20c0,6.9,2.76,10.66,8.19,10.66S69.56,261.81,69.56,254.91Z"/><path class="cls-2" d="M127.79,217.46v54.85h-7.37V250.92c.15-6.27.3-12,.6-17.71l-.3-.16c-1.49,4.39-3.28,9.41-5.07,14.42l-4.54,12.46h-7.44l-4.55-12.46c-1.78-5-3.57-10-5.06-14.42l-.3.16c.22,5.72.45,11.44.6,17.71v21.39H87V217.46h7.67l8.79,22.25c1.19,3.14,3,8.39,3.8,10.9h.3c.82-2.51,2.6-7.76,3.8-10.9l8.78-22.25Z"/><path class="cls-2" d="M185.66,256.64c0,9.79-6,15.67-15,15.67H155.72V217.46h14.15c8.41,0,13.85,5.72,13.85,14.89,0,5.33-2.08,9.64-5.29,11.75C182.9,246.06,185.66,250.68,185.66,256.64Zm-22.42-31.73v15.74h6c4.54,0,6.85-2.74,6.85-8.07,0-5.17-2.23-7.67-7.07-7.67ZM178,256.64c0-5.64-3.35-8.54-8.64-8.54h-6.11v16.76h6.41C175.16,264.86,178,262.2,178,256.64Z"/><path class="cls-2" d="M239.57,217.46v54.85h-7.52v-47.4H221c-.74,16-1.41,28.51-2.38,35-1.34,9.95-5.74,13.16-13,13.16v-7.21c3.28,0,4.92-2.11,5.74-7.75s1.48-18,2.38-40.67Z"/><path class="cls-2" d="M298,235.41v19c0,11.75-5.81,18.72-15.71,18.72s-15.71-7-15.71-18.72v-6.11h-8.42v24.05h-7.44V217.46h7.44v23.35h8.42v-5.4c0-11.76,5.81-18.73,15.71-18.73S298,223.65,298,235.41Zm-7.67,0c0-7.29-2.75-11-8-11s-8,3.76-8,11v19c0,7.28,2.68,11,8,11s8-3.76,8-11Z"/><path class="cls-2" d="M337.73,255.62c0,11-5.66,16.69-15.64,16.69h-14.3V217.46H334.9v7.45H315.31v14.18h6.78C332.07,239.09,337.73,245.59,337.73,255.62Zm-7.67,0c0-6.11-3.35-9.17-8.42-9.17h-6.33v18.34h6.33C326.71,264.79,330.06,261.81,330.06,255.62Z"/><path class="cls-2" d="M375.49,217.46v54.85H368v-47.4h-11c-.74,16-1.41,28.51-2.38,35-1.34,9.95-5.74,13.16-13,13.16v-7.21c3.28,0,4.92-2.11,5.74-7.75s1.48-18,2.38-40.67Z"/><path class="cls-2" d="M386.66,217.46H394v24c0,3.92-.3,11.05-.82,15.82l.22.16c1-2.66,2.31-6.5,3.73-9.71l12.66-30.25h7.67v54.85h-7.38v-23.9c0-4.15.3-11.52.68-16.06l-.23-.16c-1,2.82-2.46,7.05-3.72,10.11l-12.59,30h-7.59Z"/><path class="cls-2" d="M458.45,217.46v54.85h-7.52V248.26H436.18v24.05h-7.52V217.46h7.52v23.35h14.75V217.46Z"/><path class="cls-2" d="M468.13,254.91v-20c0-11.44,6-18.42,15.93-18.42s15.94,7,15.94,18.42v20c0,11.44-6,18.42-15.94,18.42S468.13,266.35,468.13,254.91Zm24.13,0v-20c0-6.9-2.83-10.66-8.2-10.66s-8.19,3.76-8.19,10.66v20c0,6.9,2.76,10.66,8.19,10.66S492.26,261.81,492.26,254.91Z"/></g><g class="cls-1"><path class="cls-2" d="M77.58,152.76v24.61H9.2V30.11H33.79V152.76Z"/><path class="cls-2" d="M128,133.19V74.29c0-30.5,15.8-47.12,42-47.12,26.8,0,42,16.62,43.19,46.7H188.55c-.8-15.15-6.8-21.67-18.8-21.67-10.19,0-16.39,6.94-16.39,22.09v58.9c0,14.73,6.2,21.67,16.59,21.67,12.2,0,18.2-6.52,19.2-21.25h24.59c-1,29.88-16.79,46.29-43.79,46.29C144,179.9,128,163.49,128,133.19Z"/><path class="cls-2" d="M299.92,152.76v24.61H231.53V30.11h24.6V152.76Z"/><path class="cls-2" d="M306.51,130.88V30.11h25.4V130.88c0,15.78,6.4,23.77,17.6,23.77s17.59-8,17.59-23.77V30.11h25.6V130.88c0,30.93-16.4,48.81-43.19,48.81C322.91,179.69,306.51,161.81,306.51,130.88Z"/><path class="cls-2" d="M499.47,134.25c0,26.29-16.6,43.12-40.79,43.12H416.49V30.11h41c22,0,37,16.2,37,41,0,12.63-4.8,24.2-12.8,30.72C492.87,107.74,499.47,119.94,499.47,134.25ZM441.08,54.51V90.7h13.4c10,0,15-6.52,15-18.51,0-11.79-5-17.68-15.79-17.68Zm33.19,79.74c0-12.84-7.19-19.36-19.59-19.36h-13.6V153h13.8C467.68,153,474.27,146.66,474.27,134.25Z"/></g><polygon class="cls-3" points="61.36 50.01 61.36 0 102.53 25.01 102.53 75.02 102.53 75.02 61.36 50.01"/></svg>