<svg id="Capa_1" data-name="Capa 1" xmlns="http://www.w3.org/2000/svg" viewBox="0 0 93.65 93.65"><defs><style>.cls-1{fill:#fff;}</style></defs><title>walk-icon</title><path class="cls-1" d="M68,49.78,58.59,39.43a5.27,5.27,0,0,1-1.14-2.84L57.1,25.86v-.31a3,3,0,0,0-3-3H41.27a4.44,4.44,0,0,0-3.75,2.38L25.16,51.18a2.94,2.94,0,0,0,1.48,4l1.82.8a3.05,3.05,0,0,0,1.23.26h0a3.14,3.14,0,0,0,2.79-1.7L38.27,43V54.56c0,.06-.06.12-.08.19L28.41,85.39a4.8,4.8,0,0,0,3.33,6.12l.66.18a4.89,4.89,0,0,0,1.32.18,5.26,5.26,0,0,0,5-3.61l9.14-28.63,3.24,7.95A33.06,33.06,0,0,1,52.94,75l1.55,14.63a4.41,4.41,0,0,0,4.4,4A4.94,4.94,0,0,0,60,93.51l.66-.16a5.6,5.6,0,0,0,4.13-6l-2.3-17.83a35.45,35.45,0,0,0-2.17-7.9l-3.11-7.15c0-.09-.09-.18-.14-.27V49.35l5.59,5.84a2.89,2.89,0,0,0,4.21,0l1-1.1A3.2,3.2,0,0,0,68,49.78Z"/><path class="cls-1" d="M48.52,20a10,10,0,1,0-10-10A10,10,0,0,0,48.52,20Z"/></svg>