<svg id="Слой_1" data-name="Слой 1" xmlns="http://www.w3.org/2000/svg" viewBox="0 0 32 32"><defs><style>.cls-1{fill:#fff;}.cls-2{fill:#df2c2e;}.cls-3{fill:#de2726;}</style></defs><title>metro-icon</title><circle class="cls-1" cx="16" cy="16" r="16"/><path class="cls-2" d="M16,1.92a14,14,0,0,1,13,8.6A14.06,14.06,0,0,1,21.48,29,14.06,14.06,0,0,1,3,21.48,14.06,14.06,0,0,1,10.52,3,13.87,13.87,0,0,1,16,1.92M16,0A16,16,0,1,0,32,16,16,16,0,0,0,16,0Z"/><polygon class="cls-3" points="16 21.44 18.73 16.69 19.87 19.91 18.95 19.91 18.95 21.33 24.41 21.33 24.41 19.91 23.37 19.91 19.45 9.6 16 15.95 12.55 9.6 8.63 19.91 7.59 19.91 7.59 21.33 13.05 21.33 13.05 19.91 12.13 19.91 13.27 16.69 16 21.44"/></svg>