<svg id="Layer_1_копия_" data-name="Layer 1 (копия)" xmlns="http://www.w3.org/2000/svg" viewBox="0 0 512 512"><defs><style>.cls-1{fill:#ac4cd8;}.cls-2{fill:#fff;}</style></defs><title>shop</title><circle class="cls-1" cx="255.38" cy="257.88" r="255.38"/><path class="cls-2" d="M309.76,102.34a50.58,50.58,0,0,0-90.94-22.61,5.94,5.94,0,1,0,9.6,7A38.69,38.69,0,0,1,298,104a6,6,0,0,0,5.89,5.12,6.18,6.18,0,0,0,.85-.06A6,6,0,0,0,309.76,102.34Z"/><path class="cls-2" d="M395.71,169,377.86,139.2a6,6,0,0,0-5.11-2.89H355.64a5.95,5.95,0,1,0,0,11.9h13.74l10.72,17.85H139.27L150,148.21h6.3a5.95,5.95,0,1,0,0-11.9h-9.67a6,6,0,0,0-5.11,2.89L123.66,169a6,6,0,0,0,5.1,9H390.61a6,6,0,0,0,5.1-9Z"/><path class="cls-2" d="M366.05,114.08a6,6,0,0,0-3.71-2.65l-81.12-19a5.95,5.95,0,0,0-7.15,4.44L268,123a6,6,0,0,0,11.59,2.71l4.76-20.35,69.54,16.26-10.93,46.72a5.94,5.94,0,0,0,4.44,7.14,5.8,5.8,0,0,0,1.36.16,5.94,5.94,0,0,0,5.79-4.6l12.28-52.5A6,6,0,0,0,366.05,114.08Z"/><path class="cls-2" d="M262.83,128.15l-5.42-45.86a5.95,5.95,0,0,0-6.61-5.21L151.27,88.84a6,6,0,0,0-5.21,6.61l9,76.49a6,6,0,0,0,5.9,5.26,5.78,5.78,0,0,0,.71,0,6,6,0,0,0,5.21-6.61L158.58,100l87.71-10.37L251,129.54a6,6,0,1,0,11.82-1.39Z"/><path class="cls-2" d="M309.9,169.76l-11.82-49.12a5.94,5.94,0,0,0-2.67-3.69,6,6,0,0,0-4.5-.7L195,139.3a6,6,0,0,0-4.39,7.18l5.9,24.55a5.95,5.95,0,0,0,11.57-2.78l-4.51-18.77,84.29-20.27,10.42,43.33a6,6,0,0,0,5.78,4.56,5.59,5.59,0,0,0,1.4-.17A6,6,0,0,0,309.9,169.76Z"/><path class="cls-2" d="M396.55,171.71a5.94,5.94,0,0,0-5.94-5.64H128.77a6,6,0,0,0-6,5.64L110.92,403.8a6,6,0,0,0,5.94,6.26H402.51a6,6,0,0,0,5.95-6.26ZM123.13,398.15,134.42,178H385l11.29,220.18Z"/><path class="cls-2" d="M304.32,189.87a17.86,17.86,0,1,0,17.85,17.85A17.88,17.88,0,0,0,304.32,189.87Zm0,23.8a5.95,5.95,0,1,1,5.95-5.95A5.95,5.95,0,0,1,304.32,213.67Z"/><path class="cls-2" d="M215.05,189.87a17.86,17.86,0,1,0,17.86,17.85A17.87,17.87,0,0,0,215.05,189.87Zm0,23.8a5.95,5.95,0,1,1,5.95-5.95A6,6,0,0,1,215.05,213.67Z"/><path class="cls-2" d="M304.32,207.72h-.46a6,6,0,0,0-5.95,5.95,5.87,5.87,0,0,0,.46,2.3V246.4a38.69,38.69,0,0,1-77.37,0V213.67a5.95,5.95,0,0,0-11.9,0V246.4a50.59,50.59,0,1,0,101.17,0V213.67A6,6,0,0,0,304.32,207.72Z"/></svg>