<svg id="Layer_1" data-name="Layer 1" xmlns="http://www.w3.org/2000/svg" viewBox="0 0 512 512"><defs><style>.cls-1{fill:#4a80ce;}.cls-2{fill:#fff;}</style></defs><title>sport</title><circle class="cls-1" cx="255.38" cy="257.88" r="255.38"/><path class="cls-2" d="M405.37,169.82H397v-28a5.23,5.23,0,0,0-5.24-5.24H377.44a5.24,5.24,0,0,0-5.24,5.24v28H353.9a14.57,14.57,0,0,0-29-2.91l-.31,2.9H299.37a45.47,45.47,0,0,1-82.6,0H191.64l-.31-2.9a14.56,14.56,0,0,0-29,2.91H144v-28a5.23,5.23,0,0,0-5.24-5.24H124.43a5.23,5.23,0,0,0-5.24,5.24v28h-8.36a9.92,9.92,0,0,0,0,19.84h8.36v28a5.25,5.25,0,0,0,5.24,5.24h14.32a5.24,5.24,0,0,0,5.24-5.24v-28h20.45c.62,5.94,5.06,47.92,5.72,54.12,1.32,12.46,17,17.73,25.46,8.06l20.47-23.43v55.74l-53,21.53a18.92,18.92,0,0,0-11.59,14.69L141,389.66a18.94,18.94,0,1,0,37.45,5.72l8.95-58.66,49-19.91h43.51l49,19.91,8.94,58.66a18.95,18.95,0,1,0,37.46-5.72l-10.57-69.29a19,19,0,0,0-11.6-14.7L299.71,284V227.91l20.91,23.93c8.22,9.41,24.1,4.75,25.46-8.06.66-6.19,5.1-48.19,5.72-54.12h20.4v28a5.25,5.25,0,0,0,5.24,5.24h14.32a5.25,5.25,0,0,0,5.25-5.24v-28h8.36a9.92,9.92,0,1,0,0-19.84ZM195.63,207.55l-1.9-17.89h17.53C204.91,196.92,202.06,200.18,195.63,207.55Zm125,0L305,189.66H322.5C321,203.55,321.4,200.13,320.61,207.55Z"/><circle class="cls-2" cx="258.07" cy="150.76" r="32.72"/></svg>